<svg width="18" height="18" viewBox="0 0 18 18" fill="none" xmlns="http://www.w3.org/2000/svg">
  <path d="M3.9375 3.9375L4.64063 15.1875C4.67402 15.8375 5.14688 16.3125 5.76563 16.3125L12.2344 16.3125C12.8556 16.3125 13.3196 15.8375 13.3594 15.1875L14.0625 3.9375" stroke="#333333" stroke-width="1.125" stroke-linecap="round" stroke-linejoin="round"/>
  <path d="M2.8125 3.9375L15.1875 3.9375Z" fill="#333333"/>
  <path d="M2.8125 3.9375L15.1875 3.9375" stroke="#333333" stroke-width="1.125" stroke-miterlimit="10" stroke-linecap="round"/>
  <path d="M6.75 3.9375L6.75 2.53125C6.74968 2.42036 6.77128 2.3105 6.81357 2.20798C6.85585 2.10547 6.91799 2.01232 6.9964 1.93391C7.07482 1.85549 7.16796 1.79336 7.27048 1.75107C7.37299 1.70878 7.48286 1.68718 7.59375 1.6875L10.4063 1.6875C10.5171 1.68718 10.627 1.70878 10.7295 1.75107C10.832 1.79336 10.9252 1.85549 11.0036 1.93391C11.082 2.01232 11.1441 2.10547 11.1864 2.20798C11.2287 2.3105 11.2503 2.42036 11.25 2.53125L11.25 3.9375M9 6.1875L9 14.0625M6.46875 6.1875L6.75 14.0625M11.5313 6.1875L11.25 14.0625" stroke="#333333" stroke-width="1.125" stroke-linecap="round" stroke-linejoin="round"/>
</svg>
