<svg width="24" height="24" viewBox="0 0 24 24" fill="none" xmlns="http://www.w3.org/2000/svg">
  <path d="M13.4308 3.34821C13.7045 3.0588 14.0585 2.85772 14.4472 2.77076C14.836 2.6838 15.2419 2.71493 15.6128 2.86014C15.9838 3.00535 16.3029 3.25803 16.5294 3.5858C16.7558 3.91357 16.8792 4.30148 16.8837 4.69983C18.1125 5.61755 19.006 6.91328 19.4271 8.388C19.8481 9.86273 19.7734 11.4349 19.2144 12.8631L17.5023 17.2369L18.2066 20.4636C18.2453 20.6405 18.2352 20.8245 18.1775 20.9961C18.1197 21.1677 18.0165 21.3204 17.8788 21.4379C17.7411 21.5554 17.574 21.6334 17.3955 21.6634C17.2169 21.6934 17.0336 21.6744 16.865 21.6084L12.642 19.9553C12.2262 20.6872 11.5607 21.2448 10.7672 21.5259C9.97382 21.8071 9.10567 21.7929 8.32182 21.4861C7.53797 21.1792 6.89092 20.6003 6.49919 19.8552C6.10745 19.1102 5.99728 18.2489 6.18883 17.4292L1.96584 15.7762C1.79725 15.7102 1.64972 15.5997 1.53901 15.4565C1.42829 15.3132 1.35854 15.1426 1.33719 14.9628C1.31585 14.783 1.34371 14.6008 1.4178 14.4357C1.49189 14.2705 1.60944 14.1285 1.7579 14.0249L4.46554 12.1337L6.17766 7.75989C7.35285 4.7577 10.3729 3.0232 13.4308 3.34821ZM8.09872 18.1768C8.08822 18.487 8.17418 18.7928 8.34475 19.0521C8.51532 19.3113 8.76211 19.5113 9.0511 19.6244C9.34008 19.7375 9.65704 19.7582 9.95829 19.6837C10.2595 19.6091 10.5302 19.4429 10.7331 19.2081L8.09872 18.1768ZM14.5186 5.65548C13.2838 5.17211 11.9075 5.19907 10.6925 5.73044C9.47755 6.26182 8.52343 7.25407 8.04006 8.48891L6.21749 13.1449C6.14553 13.3289 6.0207 13.4874 5.85875 13.6005L4.43528 14.595L15.8527 19.0643L15.4827 17.3677C15.4409 17.1748 15.4572 16.9738 15.5295 16.79L17.352 12.134C17.8354 10.8992 17.8085 9.5229 17.2771 8.30794C16.7457 7.09297 15.7535 6.13886 14.5186 5.65548Z" fill="#FFFFFF"/>
  <path d="M9.45366 2.32115C6.59727 2.88422 5.30414 4.11665 4.60438 6.94275" stroke="#FFFFFF" stroke-width="2"/>
  <path d="M20.6729 12.4358C21.8502 9.77303 21.5824 8.00686 19.6689 5.81259" stroke="#FFFFFF" stroke-width="2"/>
</svg>

